<svg xmlns="http://www.w3.org/2000/svg" width="192" height="192" viewBox="0 0 192 192">
<rect x="0" y="0" width="192" height="192" fill="#ffffff"/>
<path d="M90.039,88.32L96.602,80.664C103.237,73.298 108.505,67.807 112.406,64.191C116.307,60.574 119.807,57.963 122.906,56.357C126.005,54.749 129.159,53.945 132.367,53.945C137.544,53.945 141.19,55.331 143.305,58.102C145.419,60.872 146.477,65.685 146.477,72.539C146.477,75.383 146.185,79.576 145.602,85.117C144.727,92.482 144.289,99.409 144.289,105.898C144.289,113.19 144.654,119.096 145.383,123.617C145.893,126.388 146.659,129.159 147.68,131.93C148.409,134.555 148.773,136.341 148.773,137.289C148.773,138.456 148.336,139.367 147.461,140.023C145.201,141.992 142.211,143.706 138.492,145.164C134.773,146.622 131.638,147.352 129.086,147.352C124.93,147.352 121.156,145.93 117.766,143.086C114.375,140.242 111.75,136.305 109.891,131.273C108.031,126.242 107.102,120.555 107.102,114.211C107.102,109.982 107.539,104.987 108.414,99.227L107.977,98.789C104.841,102.289 102.307,105.06 100.375,107.102C98.443,109.143 96.638,111.076 94.961,112.898C86.794,122.232 79.867,130.654 74.18,138.164C71.992,141.081 69.987,143.633 68.164,145.82C65.466,148.518 62.404,149.867 58.977,149.867C54.31,149.867 50.518,148.117 47.602,144.617C44.685,141.117 43.227,136.596 43.227,131.055C43.227,127.628 43.628,123.435 44.43,118.477C45.232,113.518 46.307,108.214 47.656,102.563C49.005,96.911 50.609,91.096 52.469,85.117C54.328,79.138 56.352,73.451 58.539,68.055C61.893,59.086 65.977,52.086 70.789,47.055C74.07,43.773 78.044,42.133 82.711,42.133C90.294,42.133 94.086,47.056 94.086,56.902C94.086,64.123 92.591,74.45 89.602,87.882L90.039,88.32Z" fill="#0081a0"/>
</svg>